<svg width="63" height="63" viewBox="0 0 63 63" fill="none" xmlns="http://www.w3.org/2000/svg">
<path d="M20.9 62.3C32.1666 62.3 41.3 53.1666 41.3 41.9C41.3 30.6334 32.1666 21.5 20.9 21.5C9.63339 21.5 0.5 30.6334 0.5 41.9C0.5 53.1666 9.63339 62.3 20.9 62.3Z" stroke="#E30613" stroke-miterlimit="10"/>
<path d="M62 0.5L35.4 27.4" stroke="#E30613" stroke-miterlimit="10"/>
<path d="M62 21V0" stroke="#E30613" stroke-miterlimit="10"/>
<path d="M41.4 0.5H62" stroke="#E30613" stroke-miterlimit="10"/>
<path d="M8.568 43.132C7.224 43.132 5.988 42.772 4.86 42.052C3.732 41.356 2.832 40.336 2.16 38.992C1.488 37.624 1.152 35.992 1.152 34.096C1.152 32.248 1.44 30.376 2.016 28.48C2.592 26.584 3.384 24.784 4.392 23.08C5.4 21.352 6.552 19.816 7.848 18.472C9.144 17.128 10.512 16.072 11.952 15.304C13.416 14.512 14.88 14.116 16.344 14.116C17.4 14.116 18.24 14.32 18.864 14.728C19.488 15.112 19.932 15.628 20.196 16.276C20.484 16.924 20.628 17.62 20.628 18.364C20.628 19.204 20.472 20.044 20.16 20.884C19.872 21.724 19.464 22.42 18.936 22.972C18.432 23.524 17.868 23.8 17.244 23.8C16.956 23.8 16.692 23.716 16.452 23.548C16.212 23.38 15.972 23.068 15.732 22.612C16.092 22.372 16.488 21.952 16.92 21.352C17.376 20.752 17.772 20.092 18.108 19.372C18.444 18.628 18.612 17.968 18.612 17.392C18.612 16.912 18.456 16.516 18.144 16.204C17.856 15.868 17.364 15.7 16.668 15.7C15.588 15.7 14.472 16.108 13.32 16.924C12.192 17.716 11.112 18.784 10.08 20.128C9.048 21.448 8.112 22.936 7.272 24.592C6.456 26.224 5.808 27.904 5.328 29.632C4.848 31.336 4.608 32.956 4.608 34.492C4.608 36.676 5.076 38.38 6.012 39.604C6.972 40.804 8.112 41.404 9.432 41.404C10.416 41.404 11.316 41.092 12.132 40.468C12.972 39.844 13.704 39.028 14.328 38.02C14.976 36.988 15.492 35.872 15.876 34.672C16.26 33.472 16.5 32.296 16.596 31.144C15.42 30.904 14.136 30.784 12.744 30.784C12.36 30.784 11.976 30.796 11.592 30.82C11.208 30.82 10.8 30.832 10.368 30.856C10.776 29.224 11.736 28.408 13.248 28.408C13.968 28.408 14.688 28.528 15.408 28.768C16.152 28.984 16.896 29.224 17.64 29.488C18.408 29.752 19.152 29.968 19.872 30.136L19.512 31.252C19.08 32.572 18.72 33.676 18.432 34.564C18.168 35.428 17.964 36.172 17.82 36.796C17.676 37.396 17.58 37.948 17.532 38.452C17.484 38.932 17.46 39.436 17.46 39.964C17.46 40.444 17.472 40.936 17.496 41.44C17.52 41.968 17.544 42.604 17.568 43.348C16.848 43.252 16.308 43.036 15.948 42.7C15.612 42.388 15.384 42.016 15.264 41.584C15.168 41.152 15.12 40.732 15.12 40.324C15.12 40.204 15.12 40.084 15.12 39.964C15.12 39.844 15.132 39.724 15.156 39.604C14.316 40.636 13.344 41.476 12.24 42.124C11.16 42.796 9.936 43.132 8.568 43.132ZM22.6108 50.08C22.0108 50.08 21.4468 49.888 20.9188 49.504C20.4148 49.144 20.1628 48.556 20.1628 47.74C20.1628 46.972 20.3908 46.276 20.8468 45.652C21.3028 45.052 21.8908 44.488 22.6108 43.96C23.3308 43.456 24.0988 42.988 24.9148 42.556C25.7548 42.148 26.5588 41.764 27.3268 41.404C27.5908 40.708 27.8788 39.832 28.1908 38.776C28.5268 37.696 28.8148 36.7 29.0548 35.788C28.3108 36.82 27.5188 37.732 26.6788 38.524C25.8388 39.316 24.9028 39.712 23.8708 39.712C23.4388 39.712 22.9828 39.628 22.5028 39.46C22.0228 39.268 21.6148 38.956 21.2788 38.524C20.9668 38.068 20.8108 37.468 20.8108 36.724C20.8108 36.1 20.9188 35.344 21.1348 34.456C21.3748 33.568 21.6628 32.704 21.9988 31.864C22.3588 31 22.7308 30.292 23.1148 29.74C23.4988 29.164 23.8348 28.876 24.1228 28.876C24.2668 28.876 24.4708 28.936 24.7348 29.056C25.0228 29.152 25.2988 29.296 25.5628 29.488C25.8268 29.656 25.9948 29.848 26.0668 30.064C25.8508 30.352 25.6108 30.772 25.3468 31.324C25.0828 31.852 24.8308 32.452 24.5908 33.124C24.3508 33.772 24.1468 34.408 23.9788 35.032C23.8348 35.656 23.7628 36.196 23.7628 36.652C23.7628 37.012 23.8348 37.324 23.9788 37.588C24.1228 37.852 24.3988 37.984 24.8068 37.984C25.3348 37.984 25.8748 37.768 26.4268 37.336C27.0028 36.904 27.5548 36.352 28.0828 35.68C28.6348 35.008 29.1268 34.324 29.5588 33.628C29.6068 33.46 29.6548 33.196 29.7028 32.836C29.7508 32.476 29.8348 32.104 29.9548 31.72C30.0748 31.312 30.2788 30.94 30.5668 30.604C30.8788 30.268 31.3108 30.1 31.8628 30.1C32.0548 30.1 32.2348 30.112 32.4028 30.136C32.5708 30.16 32.7748 30.196 33.0148 30.244C33.0148 30.604 32.8828 31.312 32.6188 32.368C32.3788 33.4 32.0548 34.6 31.6468 35.968C31.2388 37.336 30.7828 38.704 30.2788 40.072C31.2868 39.664 32.3308 38.992 33.4108 38.056C34.5148 37.096 35.4028 35.74 36.0748 33.988L36.6868 34.492C36.3268 35.692 35.7748 36.736 35.0308 37.624C34.3108 38.512 33.4948 39.268 32.5828 39.892C31.6708 40.516 30.7468 41.032 29.8108 41.44C29.1628 43 28.4548 44.44 27.6868 45.76C26.9428 47.08 26.1508 48.124 25.3108 48.892C24.4708 49.684 23.5708 50.08 22.6108 50.08ZM22.2508 48.748C22.7068 48.748 23.3428 48.268 24.1588 47.308C24.9748 46.348 25.8028 44.908 26.6428 42.988C25.8748 43.372 25.0948 43.816 24.3028 44.32C23.5348 44.848 22.8868 45.4 22.3588 45.976C21.8308 46.552 21.5668 47.14 21.5668 47.74C21.5668 47.98 21.6148 48.208 21.7108 48.424C21.8308 48.64 22.0108 48.748 22.2508 48.748ZM54.1249 41.116C53.1889 41.116 52.4929 40.84 52.0369 40.288C51.5809 39.736 51.3529 39.076 51.3529 38.308C51.3529 37.756 51.4369 37.204 51.6049 36.652C51.7729 36.1 51.9409 35.56 52.1089 35.032C52.2769 34.48 52.3609 33.988 52.3609 33.556C52.3609 33.148 52.2769 32.872 52.1089 32.728C51.9649 32.56 51.7729 32.476 51.5329 32.476C50.9809 32.476 50.3329 32.896 49.5889 33.736C48.8689 34.576 47.9689 35.8 46.8889 37.408C46.5049 37.984 46.1449 38.596 45.8089 39.244C45.4729 39.868 45.1729 40.396 44.9089 40.828C44.6929 40.828 44.4049 40.792 44.0449 40.72C43.7089 40.648 43.4089 40.54 43.1449 40.396C42.8809 40.276 42.7489 40.108 42.7489 39.892C42.7489 39.676 42.8689 39.256 43.1089 38.632C43.3489 38.008 43.6249 37.288 43.9369 36.472C44.2489 35.632 44.5249 34.816 44.7649 34.024C45.0049 33.208 45.1249 32.524 45.1249 31.972C45.1249 31.252 44.8729 30.892 44.3689 30.892C43.8649 30.892 43.2529 31.192 42.5329 31.792C41.8369 32.392 41.0929 33.184 40.3009 34.168C39.5329 35.128 38.8009 36.208 38.1049 37.408C37.4329 38.584 36.8809 39.772 36.4489 40.972C36.1849 40.972 35.8609 40.912 35.4769 40.792C35.0929 40.696 34.7569 40.564 34.4689 40.396C34.1809 40.252 34.0369 40.12 34.0369 40C34.0369 39.976 34.1209 39.64 34.2889 38.992C34.4569 38.32 34.6609 37.492 34.9009 36.508C35.1409 35.524 35.3929 34.516 35.6569 33.484C35.9209 32.452 36.1489 31.552 36.3409 30.784C36.4129 30.52 36.6769 30.292 37.1329 30.1C37.5889 29.884 37.9849 29.776 38.3209 29.776C38.6569 29.776 38.9449 29.884 39.1849 30.1C39.4249 30.316 39.5449 30.604 39.5449 30.964C39.5449 31.204 39.4969 31.552 39.4009 32.008C39.3049 32.464 39.1849 32.98 39.0409 33.556C39.7129 32.644 40.4329 31.768 41.2009 30.928C41.9929 30.088 42.7969 29.404 43.6129 28.876C44.4529 28.324 45.2689 28.048 46.0609 28.048C46.9489 28.048 47.5489 28.372 47.8609 29.02C48.1729 29.644 48.3289 30.328 48.3289 31.072C48.3289 31.552 48.2689 32.008 48.1489 32.44C48.0529 32.848 47.9089 33.352 47.7169 33.952C48.4129 32.944 49.1929 32.08 50.0569 31.36C50.9449 30.616 51.9049 30.244 52.9369 30.244C53.8729 30.244 54.5209 30.532 54.8809 31.108C55.2409 31.66 55.4209 32.272 55.4209 32.944C55.4209 33.568 55.3129 34.228 55.0969 34.924C54.9049 35.596 54.7009 36.244 54.4849 36.868C54.2929 37.468 54.1969 37.984 54.1969 38.416C54.1969 38.656 54.2569 38.884 54.3769 39.1C54.4969 39.292 54.7369 39.388 55.0969 39.388C55.7449 39.388 56.3689 39.088 56.9689 38.488C57.5689 37.888 58.1209 37.156 58.6249 36.292C59.1529 35.404 59.5969 34.564 59.9569 33.772L60.5689 34.528C60.1849 35.512 59.6809 36.52 59.0569 37.552C58.4569 38.56 57.7489 39.4 56.9329 40.072C56.1169 40.768 55.1809 41.116 54.1249 41.116Z" fill="#C5BABA"/>
</svg>
